<svg width="980" height="96" fill="none" xmlns="http://www.w3.org/2000/svg"><rect width="100%" height="100%" fill="#354a5f"/><path d="M98.721 58.823c-1.948-1.06-3.422-2.54-4.434-4.423-1.012-1.89-1.515-4.054-1.515-6.5 0-2.497.52-4.674 1.556-6.528 1.041-1.855 2.533-3.282 4.487-4.282 1.954-1 4.264-1.498 6.932-1.498 2.662 0 4.961.503 6.897 1.515 1.943 1.012 3.429 2.445 4.47 4.3 1.041 1.854 1.556 4.019 1.556 6.5 0 2.486-.538 4.68-1.609 6.575-1.07 1.895-2.585 3.358-4.545 4.393-1.96 1.036-4.224 1.55-6.804 1.55-2.714-.011-5.049-.543-6.99-1.602zm10.05-5.201c.837-.556 1.475-1.322 1.902-2.31.427-.99.644-2.124.644-3.417 0-1.258-.235-2.364-.697-3.323-.462-.96-1.111-1.703-1.954-2.223-.842-.52-1.813-.79-2.919-.79-1.129 0-2.118.263-2.972.79-.854.526-1.503 1.263-1.96 2.217-.456.953-.684 2.065-.684 3.329 0 1.287.228 2.433.685 3.422.456.994 1.105 1.76 1.953 2.31.843.55 1.826.82 2.943.82 1.2.006 2.217-.27 3.06-.825zm13.058-12.66h5.283c.327 0 .608.234.667.556l1.439 7.681c.228 1.235.473 2.79.737 4.674.146-1.462.392-3.007.737-4.639l1.568-7.722a.682.682 0 0 1 .667-.544h6.277c.327 0 .608.234.667.55l1.468 7.716c.287 1.44.532 2.984.737 4.64.17-1.27.439-2.814.808-4.64l1.55-7.722a.682.682 0 0 1 .667-.544h4.68c.439 0 .76.41.66.837l-4.2 17.743a.677.677 0 0 1-.66.52h-6.728a.677.677 0 0 1-.667-.55l-1.603-8.148a69.18 69.18 0 0 1-.667-3.715c-.105.889-.316 2.13-.632 3.715l-1.638 8.149a.682.682 0 0 1-.667.544h-6.81a.682.682 0 0 1-.66-.52l-4.341-17.744a.683.683 0 0 1 .66-.837Zm32.082 4.283a44.879 44.879 0 0 0-.134-3.551.678.678 0 0 1 .678-.732h5.09a.68.68 0 0 1 .673.591c.034.281.076.614.11.995.071.69.106 1.199.106 1.533h.07c.662-1.2 1.492-2.077 2.492-2.639 1-.562 2.2-.837 3.605-.837 2.17 0 3.75.638 4.75 1.908 1 1.275 1.497 3.024 1.497 5.247v11.63a.679.679 0 0 1-.678.679h-5.301a.678.678 0 0 1-.678-.679v-9.728c0-1.118-.194-1.972-.585-2.563-.386-.585-1.042-.883-1.954-.883-1.007 0-1.767.34-2.294 1.012-.526.673-.79 1.632-.79 2.878v9.284a.678.678 0 0 1-.678.679h-5.3a.679.679 0 0 1-.679-.679zm24.132-9.296h5.639a.68.68 0 0 1 .679.678V59.39a.68.68 0 0 1-.68.679h-5.638a.68.68 0 0 1-.68-.679V36.627a.68.68 0 0 1 .68-.678zm11.337.678c0-.374.304-.678.679-.678h9.337c4.247 0 7.488.977 9.722 2.925 2.235 1.954 3.358 4.937 3.358 8.95 0 2.592-.525 4.803-1.585 6.64-1.059 1.837-2.545 3.23-4.47 4.177-1.924.948-4.159 1.422-6.703 1.422h-9.66a.678.678 0 0 1-.677-.679zm10.016 17.62c1.93 0 3.392-.543 4.393-1.626 1-1.082 1.498-2.661 1.498-4.727 0-1.971-.491-3.486-1.48-4.545-.988-1.053-2.492-1.585-4.511-1.585h-2.913v12.478h3.013zM29.274 42.642a3.995 3.995 0 0 1-2.837-1.176 4.011 4.011 0 0 1 0-5.675l18.615-18.615a4.011 4.011 0 0 1 5.675 0 4.011 4.011 0 0 1 0 5.674L32.112 41.466a4.005 4.005 0 0 1-2.838 1.176zm19.832-5.283a4.011 4.011 0 0 1 0-5.675l5.318-5.318a4.012 4.012 0 0 1 5.727.053c1.533 1.591 1.416 4.153-.146 5.715l-5.224 5.225a4.011 4.011 0 0 1-5.675 0zM29.151 61.327a3.995 3.995 0 0 1-2.837-1.176 4.011 4.011 0 0 1 0-5.674L39.84 40.95a4.011 4.011 0 0 1 5.674 0 4.011 4.011 0 0 1 0 5.675L31.99 60.15a4.005 4.005 0 0 1-2.838 1.176zm9.255 9.208a4.011 4.011 0 0 1-2.837-6.85l5.744-5.745a4.01 4.01 0 0 1 5.675 0 4.011 4.011 0 0 1 0 5.674l-5.745 5.745a3.995 3.995 0 0 1-2.837 1.176zm15.017-15.017a4.011 4.011 0 0 1-2.837-6.85l13.092-13.093a4.011 4.011 0 0 1 5.675 0 4.011 4.011 0 0 1 0 5.674L56.261 54.342a4.005 4.005 0 0 1-2.838 1.176zM20.001 51.89a4.001 4.001 0 1 0 0-8.002 4.001 4.001 0 0 0 0 8.003zM47.591 80a4.011 4.011 0 0 1-2.837-6.85L63.703 54.2a4.011 4.011 0 0 1 5.674 0 4.011 4.011 0 0 1 0 5.675L50.43 78.824A4.005 4.005 0 0 1 47.59 80zm28.191-28.191a4.001 4.001 0 1 0 0-8.003 4.001 4.001 0 0 0 0 8.003z" fill="#fff"/></svg>